<?xml version="1.0" encoding="UTF-8"?>
<svg id="Layer_1" data-name="Layer 1" xmlns="http://www.w3.org/2000/svg" viewBox="0 0 2000 2000">
  <defs>
    <style>
      .cls-1 {
        fill: #c26a41;
      }

      .cls-2 {
        fill: #ba9a52;
      }

      .cls-3 {
        fill: #213b59;
      }
    </style>
  </defs>
  <g>
    <path class="cls-3" d="M1847.93,1620.22c-45.87,52.11-114.71,23.61-155.46-19.66-50.36-13.9-92.04-50.39-95.9-105.49-6.48-92.62,91.14-151.4,176.64-107.16,86.78,44.91,80.16,175.08-11.97,205.2,18.23,17.23,43.62,13.62,59.44-5.06l27.26,32.17ZM1775.82,1487.46c-1.34-78.68-118.42-78.67-119.75,0,1.34,78.68,118.42,78.67,119.75,0Z"/>
    <path class="cls-3" d="M1333.63,1596.07h-66.46l-37.36-57.88h-36.29l-.74,57.88h-58.41v-214.27c69.93,0,152.02-17.69,183.18,36.42,22.59,36.61,12.08,89.98-29.28,108.79l45.36,69.06ZM1267.97,1458.95c0-38.47-46.16-28.26-73.17-29.33v60.5c28.33-.31,73.17,6.67,73.17-31.16Z"/>
    <path class="cls-3" d="M1510.92,1553.63h-91.87l-18.37,42.23h-62.15l96.73-214.2h60.67l95.38,214.2h-63.32l-17.08-42.23ZM1490.24,1507.4l-25.67-66.44-26.77,66.44h52.44Z"/>
    <path class="cls-3" d="M471.8,1567.15l11.96-21.61c31.71,26.04,101.95,45.63,121.98,4.03,7.1-18.82-1.84-33.73-20.25-40.02-23.32-8.88-41.83-9.96-63.23-18.05-32.16-10.82-51.14-35.28-40.27-69.8,18.88-54.46,108.58-52.28,149.91-23.6l-9.87,23.17c-30.76-20.82-111.13-34.34-115.78,12.57-1.19,58.77,155.06,28.05,122.25,125.16-18.4,55.61-117.64,46.21-156.7,8.16Z"/>
    <path class="cls-3" d="M152.07,1381.44l31.67.23c6.86,15.41,67.43,155.14,75.79,174.36,17.79-38.55,60.13-134.12,77.71-174l32.18-1.37c-22.69,50.65-73.33,163.79-95.39,213.45l-31.04.2c-19.01-44.27-73.2-170.35-90.92-212.87Z"/>
    <rect class="cls-3" x="1028.51" y="1381.58" width="63.15" height="214.83"/>
    <path class="cls-3" d="M853.38,1593.99h-31.02c.04-28.58,0-186.28,0-186.28h-72.06v-25.98h177.52v25.98h-74.44s-.12,135.87,0,186.28Z"/>
    <polygon class="cls-3" points="427.72 1593.99 397.06 1594.78 396.95 1382.51 427.74 1382.04 427.72 1593.99"/>
    <rect class="cls-3" x="684.05" y="1381.32" width="31.05" height="213.63"/>
  </g>
  <g>
    <path class="cls-3" d="M1438.65,666.68c-128.87-420.02-750.36-420-879.2.03-84.33,274.91,115.4,570.62,399.08,593.27-10.77-19.18-30.58-56.99-41.58-75.18-458.88-102.97-385.9-767.35,82.1-774.39,468,7.03,540.97,671.41,82.1,774.39-10.99,18.2-30.81,56-41.58,75.18,283.69-22.65,483.44-318.37,399.08-593.3Z"/>
    <path class="cls-3" d="M1106.86,460.04c-35.08-11.79-71.5-17.19-107.81-16.91-36.32-.28-72.74,5.13-107.81,16.91-116.33,36.52-212.95,130.64-240.34,250.93l70.01-.62c21.27-166.16,149.7-249.29,278.14-249.3,128.43.01,256.86,83.14,278.14,249.3l70.01.62c-27.4-120.28-124.01-214.4-240.34-250.93Z"/>
    <path class="cls-2" d="M1171.77,946.95c30.45-66.62,76.17-144.93,73.71-220.22-2.15-130.44-117.11-237.62-246.44-234.97-129.33-2.65-244.29,104.53-246.44,234.97-2.46,75.29,43.26,153.6,73.71,220.22,45.25,87.47,121.74,231.55,172.73,315.43,50.98-83.87,127.47-227.95,172.73-315.43ZM990.25,896.48c-125.75-2.59-195.46-162.88-113.51-257.42,32.96-42.05,77.63-63.06,122.3-63.06,44.67,0,89.35,21.01,122.3,63.06,81.94,94.54,12.23,254.83-113.51,257.42-2.96.24-5.88.36-8.79.42-2.91-.07-5.83-.19-8.79-.42Z"/>
    <path class="cls-1" d="M1310.18,865.72c1.51,24.8,3.16,85.37,3.75,110.84,39.78-70.97,56.63-152.05,41.31-233.09-18.65-.15-58.05-.13-76.43.34-3.17,41-16.13,80.54-30.15,118.49,16.93,4.29,45.46-3.85,61.53,3.41Z"/>
    <path class="cls-1" d="M1265.21,1047.93l18.09-22.7c-1.62-29.36-3.4-98.41-4.03-128.47l-44.87-1.99-34.56,71.87c10.71,12.59,53.71,71.57,65.36,81.29Z"/>
    <path class="cls-3" d="M1102.15,1145.98l17.09-5.67c45.48-15.92,87.08-39.04,122.84-71.61l-58.07-70.64-81.86,147.92Z"/>
    <path d="M1124.78,745.25v-7.67c.09,2.59.09,5.14,0,7.67Z"/>
    <path class="cls-1" d="M684.16,976.56c.59-25.47,2.23-86.04,3.75-110.84,16.07-7.27,44.61.88,61.53-3.41-14.02-37.95-26.99-77.49-30.15-118.49-18.38-.47-57.78-.49-76.43-.34-15.33,81.03,1.53,162.12,41.31,233.09Z"/>
    <path class="cls-1" d="M798.25,966.64l-34.56-71.87-44.87,1.99c-.63,30.05-2.41,99.11-4.03,128.47l18.09,22.7c11.66-9.72,54.66-68.7,65.36-81.29Z"/>
    <path class="cls-3" d="M895.94,1145.98l-81.86-147.92-58.07,70.64c35.76,32.57,77.36,55.69,122.84,71.61l17.09,5.67Z"/>
    <rect class="cls-1" x="905.07" y="672.62" width="188.02" height="64.95"/>
    <rect class="cls-3" x="947.92" y="617.74" width="102.33" height="54.88"/>
    <path class="cls-3" d="M1124.84,737.57v7.67c-1.94,68.49-57.41,118.26-125.73,121.38-70.84-3.22-127.89-56.63-125.73-129.05h251.47Z"/>
    <g>
      <path class="cls-2" d="M1098.4,817.87c-6.57,8.2-14.19,15.55-22.68,21.88l-62.09-73.37.82,98.73c-5.04.77-10.18,1.28-15.38,1.51h-.02c-5.21-.24-10.35-.75-15.38-1.51l.82-98.73-62.09,73.37c-8.49-6.33-16.11-13.68-22.68-21.88,19.47-23.23,68.2-80.37,68.2-80.37l-30.1-34.08h122.5l-30.1,34.08s48.73,57.14,68.2,80.37Z"/>
      <rect class="cls-2" x="983.56" y="636.66" width="30.99" height="35.96"/>
    </g>
  </g>
</svg>