<?xml version="1.0" encoding="UTF-8"?>
<svg id="Layer_1" data-name="Layer 1" xmlns="http://www.w3.org/2000/svg" viewBox="0 0 6009.61 2000">
  <defs>
    <style>
      .cls-1 {
        fill: #c26a41;
      }

      .cls-2 {
        fill: #ba9a52;
      }

      .cls-3 {
        fill: #213b59;
      }
    </style>
  </defs>
  <g>
    <path class="cls-3" d="M5118.95,1254.32c-84.26,95.72-210.73,43.38-285.59-36.11-92.51-25.54-169.09-92.56-176.17-193.79-11.9-170.14,167.43-278.13,324.49-196.86,159.43,82.5,147.27,321.63-21.99,376.96,33.49,31.65,80.14,25.02,109.19-9.29l50.07,59.1ZM4986.49,1010.42c-2.47-144.54-217.54-144.52-219.99,0,2.47,144.54,217.54,144.51,219.99,0Z"/>
    <path class="cls-3" d="M4174.17,1209.93h-122.09l-68.64-106.33h-66.67l-1.35,106.33h-107.29v-393.62c128.46,0,279.26-32.5,336.5,66.91,41.49,67.25,22.19,165.29-53.79,199.84l83.33,126.87ZM4053.55,958.04c0-70.67-84.79-51.91-134.42-53.89v111.13c52.05-.56,134.42,12.26,134.42-57.25Z"/>
    <path class="cls-3" d="M4499.86,1131.98h-168.77l-33.74,77.58h-114.17l177.7-393.49h111.46l175.22,393.49h-116.32l-31.38-77.58ZM4461.86,1047.05l-47.16-122.05-49.17,122.05h96.34Z"/>
    <path class="cls-3" d="M2590.96,1156.82l21.96-39.7c58.26,47.83,187.28,83.82,224.07,7.4,13.04-34.57-3.38-61.97-37.19-73.52-42.84-16.32-76.84-18.29-116.15-33.17-59.08-19.88-93.95-64.81-73.98-128.22,34.69-100.05,199.46-96.05,275.4-43.35l-18.12,42.56c-56.51-38.24-204.15-63.08-212.7,23.1-2.18,107.97,284.84,51.53,224.57,229.92-33.79,102.15-216.1,84.89-287.86,14.98Z"/>
    <path class="cls-3" d="M2003.6,815.66l58.18.42c12.59,28.31,123.87,285,139.22,320.31,32.68-70.82,110.46-246.39,142.75-319.64l59.11-2.51c-41.69,93.04-134.71,300.9-175.24,392.11l-57.01.36c-34.92-81.32-134.47-312.94-167.01-391.05Z"/>
    <rect class="cls-3" x="3613.65" y="815.92" width="116.02" height="394.65"/>
    <path class="cls-3" d="M3291.94,1206.13h-56.99c.08-52.5,0-342.2,0-342.2h-132.38v-47.72h326.12v47.72h-136.75s-.22,249.6,0,342.2Z"/>
    <polygon class="cls-3" points="2509.98 1206.13 2453.65 1207.57 2453.46 817.62 2510.01 816.76 2509.98 1206.13"/>
    <rect class="cls-3" x="2980.86" y="815.44" width="57.04" height="392.44"/>
  </g>
  <g>
    <path class="cls-3" d="M1789.35,859.65c-128.87-420.02-750.36-420-879.2.03-84.33,274.91,115.4,570.62,399.08,593.27-10.77-19.18-30.58-56.99-41.58-75.18-458.88-102.97-385.9-767.35,82.1-774.39,468,7.03,540.97,671.41,82.1,774.39-10.99,18.2-30.81,56-41.58,75.18,283.69-22.65,483.44-318.37,399.08-593.3Z"/>
    <path class="cls-3" d="M1457.56,653.02c-35.08-11.79-71.5-17.19-107.81-16.91-36.32-.28-72.74,5.13-107.81,16.91-116.33,36.52-212.95,130.64-240.34,250.93l70.01-.62c21.27-166.16,149.7-249.29,278.14-249.3,128.43.01,256.86,83.14,278.14,249.3l70.01.62c-27.4-120.28-124.01-214.4-240.34-250.93Z"/>
    <path class="cls-2" d="M1522.48,1139.93c30.45-66.62,76.17-144.93,73.71-220.22-2.15-130.44-117.11-237.62-246.44-234.97-129.33-2.65-244.29,104.53-246.44,234.97-2.46,75.29,43.26,153.6,73.71,220.22,45.25,87.47,121.74,231.55,172.73,315.43,50.98-83.87,127.47-227.95,172.73-315.43ZM1340.96,1089.45c-125.75-2.59-195.46-162.88-113.51-257.42,32.96-42.05,77.63-63.06,122.3-63.06,44.67,0,89.35,21.01,122.3,63.06,81.94,94.54,12.23,254.83-113.51,257.42-2.96.24-5.88.36-8.79.42-2.91-.07-5.83-.19-8.79-.42Z"/>
    <path class="cls-1" d="M1660.89,1058.69c1.51,24.8,3.16,85.37,3.75,110.84,39.78-70.97,56.63-152.05,41.31-233.09-18.65-.15-58.05-.13-76.43.34-3.17,41-16.13,80.54-30.15,118.49,16.93,4.29,45.46-3.85,61.53,3.41Z"/>
    <path class="cls-1" d="M1615.92,1240.9l18.09-22.7c-1.62-29.36-3.4-98.41-4.03-128.47l-44.87-1.99-34.56,71.87c10.71,12.59,53.71,71.57,65.36,81.29Z"/>
    <path class="cls-3" d="M1452.86,1338.95l17.09-5.67c45.48-15.92,87.08-39.04,122.84-71.61l-58.07-70.64-81.86,147.92Z"/>
    <path d="M1475.48,938.22v-7.67c.09,2.59.09,5.14,0,7.67Z"/>
    <path class="cls-1" d="M1034.87,1169.53c.59-25.47,2.23-86.04,3.75-110.84,16.07-7.27,44.61.88,61.53-3.41-14.02-37.95-26.99-77.49-30.15-118.49-18.38-.47-57.78-.49-76.43-.34-15.33,81.03,1.53,162.12,41.31,233.09Z"/>
    <path class="cls-1" d="M1148.95,1159.61l-34.56-71.87-44.87,1.99c-.63,30.05-2.41,99.11-4.03,128.47l18.09,22.7c11.66-9.72,54.66-68.7,65.36-81.29Z"/>
    <path class="cls-3" d="M1246.65,1338.95l-81.86-147.92-58.07,70.64c35.76,32.57,77.36,55.69,122.84,71.61l17.09,5.67Z"/>
    <rect class="cls-1" x="1255.78" y="865.59" width="188.02" height="64.95"/>
    <rect class="cls-3" x="1298.62" y="810.71" width="102.33" height="54.88"/>
    <path class="cls-3" d="M1475.55,930.54v7.67c-1.94,68.49-57.41,118.26-125.73,121.38-70.84-3.22-127.89-56.63-125.73-129.05h251.47Z"/>
    <g>
      <path class="cls-2" d="M1449.1,1010.85c-6.57,8.2-14.19,15.55-22.68,21.88l-62.09-73.37.82,98.73c-5.04.77-10.18,1.28-15.38,1.51h-.02c-5.21-.24-10.35-.75-15.38-1.51l.82-98.73-62.09,73.37c-8.49-6.33-16.11-13.68-22.68-21.88,19.47-23.23,68.2-80.37,68.2-80.37l-30.1-34.08h122.5l-30.1,34.08s48.73,57.14,68.2,80.37Z"/>
      <rect class="cls-2" x="1334.26" y="829.64" width="30.99" height="35.96"/>
    </g>
  </g>
</svg>